<?xml version="1.0" encoding="UTF-8" standalone="no"?>
<svg
   xmlns:dc="http://purl.org/dc/elements/1.1/"
   xmlns:cc="http://creativecommons.org/ns#"
   xmlns:rdf="http://www.w3.org/1999/02/22-rdf-syntax-ns#"
   xmlns:svg="http://www.w3.org/2000/svg"
   xmlns="http://www.w3.org/2000/svg"
   xmlns:xlink="http://www.w3.org/1999/xlink"
   xmlns:sodipodi="http://sodipodi.sourceforge.net/DTD/sodipodi-0.dtd"
   xmlns:inkscape="http://www.inkscape.org/namespaces/inkscape"
   id="svg2"
   viewBox="0 0 256 256"
   version="1.1"
   inkscape:version="0.48.3.1 r9886"
   width="100%"
   height="100%"
   sodipodi:docname="apple-crown.svg">
  <sodipodi:namedview
     pagecolor="#ffffff"
     bordercolor="#666666"
     borderopacity="1"
     objecttolerance="10"
     gridtolerance="10"
     guidetolerance="10"
     inkscape:pageopacity="0"
     inkscape:pageshadow="2"
     inkscape:window-width="1416"
     inkscape:window-height="753"
     id="namedview40"
     showgrid="false"
     inkscape:zoom="1.84375"
     inkscape:cx="64"
     inkscape:cy="107.38983"
     inkscape:window-x="0"
     inkscape:window-y="25"
     inkscape:window-maximized="0"
     inkscape:current-layer="svg2" />
  <defs
     id="defs4">
    <linearGradient
       id="linearGradient3002">
      <stop
         id="stop3004"
         stop-color="#fff"
         offset="0" />
      <stop
         id="stop3006"
         stop-color="#fff"
         stop-opacity="0"
         offset="1" />
    </linearGradient>
    <linearGradient
       id="linearGradient2990">
      <stop
         id="stop2992"
         stop-opacity="0"
         offset="0" />
      <stop
         id="stop2994"
         stop-opacity=".33613"
         offset="1" />
    </linearGradient>
    <radialGradient
       id="radialGradient2996"
       xlink:href="#linearGradient2990"
       gradientUnits="userSpaceOnUse"
       cy="993.08002"
       cx="64.384003"
       gradientTransform="matrix(0.75022,-0.58252,0.47416,0.61067,-469.67,425.72)"
       r="52.158001" />
    <linearGradient
       id="linearGradient3010"
       x1="76.014"
       xlink:href="#linearGradient3002"
       gradientUnits="userSpaceOnUse"
       y1="35.368999"
       gradientTransform="translate(2,933.36)"
       x2="91.924004"
       y2="94.412003" />
    <filter
       id="filter3800"
       y="-0.23371001"
       width="1.2571"
       x="-0.12853999"
       height="1.4674"
       color-interpolation-filters="sRGB">
      <feGaussianBlur
         id="feGaussianBlur3802"
         stdDeviation="2.4178001" />
    </filter>
    <linearGradient
       id="linearGradient3816"
       x1="57.616001"
       xlink:href="#linearGradient2990"
       gradientUnits="userSpaceOnUse"
       y1="954.58002"
       gradientTransform="matrix(0.94412,0,0,0.94412,3.9573,54.212)"
       x2="49.199001"
       y2="957.06" />
    <linearGradient
       id="linearGradient3818"
       x1="87.113998"
       xlink:href="#linearGradient2990"
       gradientUnits="userSpaceOnUse"
       y1="961.12"
       gradientTransform="matrix(0.94412,0,0,0.94412,3.9573,54.212)"
       x2="78.415001"
       y2="947.15002" />
    <linearGradient
       id="linearGradient3820"
       x1="92.454002"
       xlink:href="#linearGradient2990"
       gradientUnits="userSpaceOnUse"
       y1="956.90002"
       gradientTransform="matrix(0.94412,0,0,0.94412,3.9573,54.212)"
       x2="74.246002"
       y2="930.21002" />
    <linearGradient
       id="linearGradient3824"
       x1="48.125"
       xlink:href="#linearGradient3002"
       gradientUnits="userSpaceOnUse"
       y1="32.125"
       gradientTransform="translate(3,924.36)"
       x2="57.75"
       y2="29.625" />
    <filter
       id="filter3842"
       y="-0.057962"
       width="1.2388999"
       x="-0.11944"
       height="1.1159"
       color-interpolation-filters="sRGB">
      <feGaussianBlur
         id="feGaussianBlur3844"
         stdDeviation="0.51320278" />
    </filter>
    <linearGradient
       id="linearGradient3848"
       x1="80.375"
       xlink:href="#linearGradient3002"
       gradientUnits="userSpaceOnUse"
       y1="1.4098001"
       gradientTransform="translate(3,924.36)"
       x2="92.125"
       y2="22.41" />
    <filter
       id="filter3858"
       y="-0.16834"
       width="1.0709"
       x="-0.035427999"
       height="1.3367"
       color-interpolation-filters="sRGB">
      <feGaussianBlur
         id="feGaussianBlur3860"
         stdDeviation="0.76391109" />
    </filter>
    <filter
       id="filter3888"
       y="-0.66649997"
       width="1.2782"
       x="-0.1391"
       height="2.3329999"
       color-interpolation-filters="sRGB">
      <feGaussianBlur
         id="feGaussianBlur3890"
         stdDeviation="4.7128836" />
    </filter>
    <linearGradient
       id="linearGradient2613"
       x1="79.614998"
       xlink:href="#linearGradient662"
       spreadMethod="reflect"
       gradientUnits="userSpaceOnUse"
       y1="983.84998"
       gradientTransform="matrix(1.5269,0,0,0.43331,-113.57,-298.41)"
       x2="128.05"
       y2="983.85999" />
    <linearGradient
       id="linearGradient662">
      <stop
         id="stop663"
         stop-color="#853d00"
         offset="0" />
      <stop
         id="stop664"
         stop-color="#ffea00"
         offset="1" />
    </linearGradient>
    <linearGradient
       id="linearGradient2615"
       x1="71.825996"
       xlink:href="#linearGradient662"
       spreadMethod="reflect"
       gradientUnits="userSpaceOnUse"
       y1="941.46002"
       gradientTransform="matrix(1.6139,0,0,0.40993,-113.57,-298.41)"
       x2="115.08"
       y2="939.13" />
    <linearGradient
       id="linearGradient3055">
      <stop
         id="stop3057"
         stop-color="#853d00"
         offset="0" />
      <stop
         id="stop3059"
         stop-color="#ffea00"
         offset="1" />
    </linearGradient>
    <linearGradient
       id="linearGradient2617"
       x1="65.57"
       xlink:href="#linearGradient662"
       spreadMethod="reflect"
       gradientUnits="userSpaceOnUse"
       y1="1363.3"
       gradientTransform="matrix(2.0477,0,0,0.3231,-113.57,-298.41)"
       x2="104.15"
       y2="1345.3" />
    <linearGradient
       id="linearGradient3062">
      <stop
         id="stop3064"
         stop-color="#853d00"
         offset="0" />
      <stop
         id="stop3066"
         stop-color="#ffea00"
         offset="1" />
    </linearGradient>
    <linearGradient
       id="linearGradient2619"
       x1="66.686996"
       xlink:href="#linearGradient662"
       spreadMethod="reflect"
       gradientUnits="userSpaceOnUse"
       y1="1247.6"
       gradientTransform="matrix(2.0193,0,0,0.32763,-113.57,-298.41)"
       x2="105.92"
       y2="1229.3" />
    <linearGradient
       id="linearGradient3069">
      <stop
         id="stop3071"
         stop-color="#853d00"
         offset="0" />
      <stop
         id="stop3073"
         stop-color="#ffea00"
         offset="1" />
    </linearGradient>
    <linearGradient
       id="linearGradient2621"
       x1="449.48001"
       xlink:href="#linearGradient662"
       gradientUnits="userSpaceOnUse"
       y1="584.72998"
       gradientTransform="scale(1.0318,0.96922)"
       x2="469.47"
       y2="584.72998" />
    <linearGradient
       id="linearGradient3076">
      <stop
         id="stop3078"
         stop-color="#853d00"
         offset="0" />
      <stop
         id="stop3080"
         stop-color="#ffea00"
         offset="1" />
    </linearGradient>
    <linearGradient
       id="linearGradient2623"
       x1="541.84003"
       xlink:href="#linearGradient723"
       gradientUnits="userSpaceOnUse"
       y1="536.28998"
       gradientTransform="scale(0.9418,1.0618)"
       x2="553.82001"
       y2="536.28998" />
    <linearGradient
       id="linearGradient723">
      <stop
         id="stop724"
         stop-color="#006a00"
         offset="0" />
      <stop
         id="stop725"
         stop-color="#ffffb7"
         offset="1" />
    </linearGradient>
    <linearGradient
       id="linearGradient3086"
       x1="449.48001"
       xlink:href="#linearGradient662"
       gradientUnits="userSpaceOnUse"
       y1="584.72998"
       gradientTransform="scale(1.0318,0.96922)"
       x2="469.47"
       y2="584.72998" />
    <linearGradient
       id="linearGradient3088">
      <stop
         id="stop3090"
         stop-color="#853d00"
         offset="0" />
      <stop
         id="stop3092"
         stop-color="#ffea00"
         offset="1" />
    </linearGradient>
    <linearGradient
       id="linearGradient3094"
       x1="541.84003"
       xlink:href="#linearGradient723"
       gradientUnits="userSpaceOnUse"
       y1="536.28998"
       gradientTransform="scale(0.9418,1.0618)"
       x2="553.82001"
       y2="536.28998" />
    <linearGradient
       id="linearGradient3096">
      <stop
         id="stop3098"
         stop-color="#006a00"
         offset="0" />
      <stop
         id="stop3100"
         stop-color="#ffffb7"
         offset="1" />
    </linearGradient>
    <linearGradient
       id="linearGradient2629"
       x1="242.61"
       xlink:href="#linearGradient662"
       gradientUnits="userSpaceOnUse"
       y1="692.76001"
       gradientTransform="scale(1.2649,0.79057)"
       x2="270.28"
       y2="692.76001" />
    <linearGradient
       id="linearGradient3103">
      <stop
         id="stop3105"
         stop-color="#853d00"
         offset="0" />
      <stop
         id="stop3107"
         stop-color="#ffea00"
         offset="1" />
    </linearGradient>
    <linearGradient
       id="linearGradient2631"
       x1="210.7"
       xlink:href="#linearGradient702"
       gradientUnits="userSpaceOnUse"
       y1="994.62"
       gradientTransform="scale(1.6657,0.60036)"
       x2="215.92999"
       y2="983.82001" />
    <linearGradient
       id="linearGradient702">
      <stop
         id="stop703"
         stop-color="#ff5a00"
         offset="0" />
      <stop
         id="stop704"
         stop-color="#fff"
         offset="1" />
    </linearGradient>
    <linearGradient
       id="linearGradient3113"
       x1="242.61"
       xlink:href="#linearGradient662"
       gradientUnits="userSpaceOnUse"
       y1="692.76001"
       gradientTransform="scale(1.2649,0.79057)"
       x2="270.28"
       y2="692.76001" />
    <linearGradient
       id="linearGradient3115">
      <stop
         id="stop3117"
         stop-color="#853d00"
         offset="0" />
      <stop
         id="stop3119"
         stop-color="#ffea00"
         offset="1" />
    </linearGradient>
    <linearGradient
       id="linearGradient3121"
       x1="210.7"
       xlink:href="#linearGradient702"
       gradientUnits="userSpaceOnUse"
       y1="994.62"
       gradientTransform="scale(1.6657,0.60036)"
       x2="215.92999"
       y2="983.82001" />
    <linearGradient
       id="linearGradient3123">
      <stop
         id="stop3125"
         stop-color="#ff5a00"
         offset="0" />
      <stop
         id="stop3127"
         stop-color="#fff"
         offset="1" />
    </linearGradient>
    <linearGradient
       id="linearGradient3129"
       x1="242.61"
       xlink:href="#linearGradient662"
       gradientUnits="userSpaceOnUse"
       y1="692.76001"
       gradientTransform="scale(1.2649,0.79057)"
       x2="270.28"
       y2="692.76001" />
    <linearGradient
       id="linearGradient3131">
      <stop
         id="stop3133"
         stop-color="#853d00"
         offset="0" />
      <stop
         id="stop3135"
         stop-color="#ffea00"
         offset="1" />
    </linearGradient>
    <linearGradient
       id="linearGradient2639"
       x1="-125.47"
       xlink:href="#linearGradient702"
       gradientUnits="userSpaceOnUse"
       y1="1137.6"
       gradientTransform="scale(1.4791,0.6761)"
       x2="-121.23"
       y2="1128.8" />
    <linearGradient
       id="linearGradient3138">
      <stop
         id="stop3140"
         stop-color="#ff5a00"
         offset="0" />
      <stop
         id="stop3142"
         stop-color="#fff"
         offset="1" />
    </linearGradient>
    <linearGradient
       id="linearGradient2641"
       x1="753.72998"
       xlink:href="#linearGradient662"
       gradientUnits="userSpaceOnUse"
       y1="318.48001"
       gradientTransform="scale(0.65624,1.5238)"
       x2="769.89001"
       y2="318.48001" />
    <linearGradient
       id="linearGradient3145">
      <stop
         id="stop3147"
         stop-color="#853d00"
         offset="0" />
      <stop
         id="stop3149"
         stop-color="#ffea00"
         offset="1" />
    </linearGradient>
    <linearGradient
       id="linearGradient2643"
       x1="695.97998"
       xlink:href="#linearGradient723"
       gradientUnits="userSpaceOnUse"
       y1="366.04999"
       gradientTransform="scale(0.72556,1.3782)"
       x2="704.07001"
       y2="356.69" />
    <linearGradient
       id="linearGradient3152">
      <stop
         id="stop3154"
         stop-color="#006a00"
         offset="0" />
      <stop
         id="stop3156"
         stop-color="#ffffb7"
         offset="1" />
    </linearGradient>
    <linearGradient
       id="linearGradient3158"
       x1="753.72998"
       xlink:href="#linearGradient662"
       gradientUnits="userSpaceOnUse"
       y1="318.48001"
       gradientTransform="scale(0.65624,1.5238)"
       x2="769.89001"
       y2="318.48001" />
    <linearGradient
       id="linearGradient3160">
      <stop
         id="stop3162"
         stop-color="#853d00"
         offset="0" />
      <stop
         id="stop3164"
         stop-color="#ffea00"
         offset="1" />
    </linearGradient>
    <linearGradient
       id="linearGradient3166"
       x1="695.97998"
       xlink:href="#linearGradient723"
       gradientUnits="userSpaceOnUse"
       y1="366.04999"
       gradientTransform="scale(0.72556,1.3782)"
       x2="704.07001"
       y2="356.69" />
    <linearGradient
       id="linearGradient3168">
      <stop
         id="stop3170"
         stop-color="#006a00"
         offset="0" />
      <stop
         id="stop3172"
         stop-color="#ffffb7"
         offset="1" />
    </linearGradient>
    <linearGradient
       y2="584.72998"
       x2="469.47"
       y1="584.72998"
       x1="449.48001"
       gradientTransform="scale(1.0318,0.96922)"
       gradientUnits="userSpaceOnUse"
       id="linearGradient3211"
       xlink:href="#linearGradient662"
       inkscape:collect="always" />
    <linearGradient
       y2="536.28998"
       x2="553.82001"
       y1="536.28998"
       x1="541.84003"
       gradientTransform="scale(0.9418,1.0618)"
       gradientUnits="userSpaceOnUse"
       id="linearGradient3213"
       xlink:href="#linearGradient723"
       inkscape:collect="always" />
    <linearGradient
       y2="692.76001"
       x2="270.28"
       y1="692.76001"
       x1="242.61"
       gradientTransform="scale(1.2649,0.79057)"
       gradientUnits="userSpaceOnUse"
       id="linearGradient3215"
       xlink:href="#linearGradient662"
       inkscape:collect="always" />
    <linearGradient
       y2="983.82001"
       x2="215.92999"
       y1="994.62"
       x1="210.7"
       gradientTransform="scale(1.6657,0.60036)"
       gradientUnits="userSpaceOnUse"
       id="linearGradient3217"
       xlink:href="#linearGradient702"
       inkscape:collect="always" />
    <linearGradient
       y2="692.76001"
       x2="270.28"
       y1="692.76001"
       x1="242.61"
       gradientTransform="scale(1.2649,0.79057)"
       gradientUnits="userSpaceOnUse"
       id="linearGradient3219"
       xlink:href="#linearGradient662"
       inkscape:collect="always" />
    <linearGradient
       y2="318.48001"
       x2="769.89001"
       y1="318.48001"
       x1="753.72998"
       gradientTransform="scale(0.65624,1.5238)"
       gradientUnits="userSpaceOnUse"
       id="linearGradient3221"
       xlink:href="#linearGradient662"
       inkscape:collect="always" />
    <linearGradient
       y2="356.69"
       x2="704.07001"
       y1="366.04999"
       x1="695.97998"
       gradientTransform="scale(0.72556,1.3782)"
       gradientUnits="userSpaceOnUse"
       id="linearGradient3223"
       xlink:href="#linearGradient723"
       inkscape:collect="always" />
  </defs>
  <g
     id="layer1"
     transform="matrix(2.0295519,0,0,2.0295519,-4.2726047,-1882.8661)">
    <path
       id="path3862"
       d="m 102.53,114.92 a 40.659,8.4853 0 1 1 -81.317,0 40.659,8.4853 0 1 1 81.317,0 z"
       transform="matrix(0.76087,0,0,0.47917,16.033,988.64)"
       inkscape:connector-curvature="0"
       style="opacity:0.69835002;fill-opacity:0.44843002;filter:url(#filter3888)" />
    <path
       id="path2985"
       d="m 110.32,1001.4 c -3.86,17.498 -11.49,37.795 -31.748,43.907 -4.9671,1.4984 -10.901,-2.486 -17.483,-2.5879 -6.9401,-0.1077 -12.753,3.5371 -17.908,1.6084 -18.198,-6.8087 -23.36,-25.068 -27.608,-42.455 -3.2824,-13.433 -0.99538,-27.12 8.3996,-33.948 15.943,-11.588 25.869,0.43642 37.713,0.35685 17.343,-0.11653 23.443,-13.93 42.869,3.272 10.817,9.5778 8.5979,17.008 5.7656,29.84805 z"
       inkscape:connector-curvature="0"
       style="fill:#ff0000" />
    <path
       id="path2988"
       d="m 110.32,1001.4 c -3.86,17.498 -11.49,37.795 -31.748,43.907 -4.9671,1.4984 -10.901,-2.486 -17.483,-2.5879 -6.9401,-0.1077 -12.753,3.5371 -17.908,1.6084 -18.198,-6.8087 -23.36,-25.068 -27.608,-42.455 -3.2824,-13.433 -0.99538,-27.12 8.3996,-33.948 15.943,-11.588 25.869,0.43642 37.713,0.35685 17.343,-0.11653 23.443,-13.93 42.869,3.272 10.817,9.5778 8.5979,17.008 5.7656,29.84805 z"
       inkscape:connector-curvature="0"
       style="fill:url(#radialGradient2996)" />
    <path
       id="path3000"
       d="m 64.225,975.45 c 12.475,0.79886 22.398,-2.23 31.113,-7.0711 0,0 15.934,8.8498 12.728,15.91 -3.2113,7.0711 -28.395,10.607 -35.355,8.1317 -9.2917,-3.3038 -10.607,-12.374 -8.4853,-16.971 z"
       transform="matrix(0.94412,0,0,0.94412,1.125,54.212)"
       inkscape:connector-curvature="0"
       style="opacity:0.72313998;fill:url(#linearGradient3010);filter:url(#filter3800)" />
    <path
       id="path3804"
       d="m 48.331,946.51 c -1.2724,10.396 5.4446,14.603 9.6772,20.653 1.5534,0.41804 3.0088,1.1011 4.2485,0 -4.0944,-7.1945 -5.7332,-14.875 -3.5405,-23.013 -4.0229,-0.55998 -7.9103,-0.79467 -10.385,2.3603 z"
       inkscape:connector-curvature="0"
       style="fill:#00ff00" />
    <path
       id="path3806"
       d="m 59.5,955.85 c 30.279,-8.1321 39.251,-15.686 56.21,-23.456 -0.11392,0.015 -24.375,45.315 -56.21,23.456 z"
       inkscape:connector-curvature="0"
       style="fill:#00ff00" />
    <path
       id="path3808"
       d="m 59.5,955.85 c 30.279,-8.1321 39.251,-15.686 56.21,-23.456 -1.7295,-2.3398 -64.178,-12.702 -56.21,23.456 z"
       inkscape:connector-curvature="0"
       style="fill:#00ff00" />
    <path
       id="path3810"
       d="m 48.331,946.51 c -1.2724,10.396 5.4446,14.603 9.6772,20.653 1.5534,0.41804 3.0088,1.1011 4.2485,0 -4.0944,-7.1945 -5.7332,-14.875 -3.5405,-23.013 -4.0229,-0.55998 -7.9103,-0.79467 -10.385,2.3603 z"
       inkscape:connector-curvature="0"
       style="fill:url(#linearGradient3816)" />
    <path
       id="path3812"
       d="m 59.5,955.85 c 30.279,-8.1321 39.251,-15.686 56.21,-23.456 -0.11392,0.015 -24.375,45.315 -56.21,23.456 z"
       inkscape:connector-curvature="0"
       style="fill:url(#linearGradient3818)" />
    <path
       id="path3814"
       d="m 59.5,955.85 c 30.279,-8.1321 39.251,-15.686 56.21,-23.456 -1.7295,-2.3398 -64.178,-12.702 -56.21,23.456 z"
       inkscape:connector-curvature="0"
       style="fill:url(#linearGradient3820)" />
    <path
       id="path3822"
       transform="matrix(0.94412,0,0,0.94412,1.125,54.212)"
       d="m 50.875,945.74 c -0.68525,8.6484 4.4359,14.564 9.25,20.625 l 1,-0.375 c -4.0576,-6.1325 -10.12,-10.999 -8.25,-20.875 z"
       inkscape:connector-curvature="0"
       style="fill:url(#linearGradient3824);filter:url(#filter3842)" />
    <path
       id="path3846"
       d="m 65.75,938.61 c 16.2,-5.0169 33.551,-7.731 51.75,-8.75 0,0 -37.5,-8.625 -51.75,8.75 z"
       transform="matrix(0.94412,0,0,0.94412,1.125,54.212)"
       inkscape:connector-curvature="0"
       style="opacity:0.69835002;fill:url(#linearGradient3848);filter:url(#filter3858)" />
  </g>
  <metadata
     id="metadata38">
    <rdf:RDF>
      <cc:Work>
        <dc:format>image/svg+xml</dc:format>
        <dc:type
           rdf:resource="http://purl.org/dc/dcmitype/StillImage" />
        <cc:license
           rdf:resource="http://creativecommons.org/licenses/publicdomain/" />
        <dc:publisher>
          <cc:Agent
             rdf:about="http://openclipart.org/">
            <dc:title>Openclipart</dc:title>
          </cc:Agent>
        </dc:publisher>
        <dc:title></dc:title>
        <dc:date>2013-05-25T16:07:46</dc:date>
        <dc:description>A glossy red apple</dc:description>
        <dc:source>http://openclipart.org/detail/178608/glossy-apple-by-nicubunu-178608</dc:source>
        <dc:creator>
          <cc:Agent>
            <dc:title>nicubunu</dc:title>
          </cc:Agent>
        </dc:creator>
        <dc:subject>
          <rdf:Bag>
            <rdf:li>apple</rdf:li>
            <rdf:li>fruit</rdf:li>
            <rdf:li>glossy</rdf:li>
            <rdf:li>red</rdf:li>
          </rdf:Bag>
        </dc:subject>
      </cc:Work>
      <cc:License
         rdf:about="http://creativecommons.org/licenses/publicdomain/">
        <cc:permits
           rdf:resource="http://creativecommons.org/ns#Reproduction" />
        <cc:permits
           rdf:resource="http://creativecommons.org/ns#Distribution" />
        <cc:permits
           rdf:resource="http://creativecommons.org/ns#DerivativeWorks" />
      </cc:License>
    </rdf:RDF>
  </metadata>
  <g
     style="fill-rule:evenodd"
     id="g2575"
     transform="matrix(0.62785786,0,0,0.69922805,27.036944,30.94741)">
    <path
       style="fill:url(#linearGradient2613)"
       inkscape:connector-curvature="0"
       id="path615"
       d="M 296.87,83.912 C 295.67,111.19 212.36,131.75 144.29,130.16 80.132,128.65 3.55,108.25 4.33,80.397 L 3.0742,117.18 c -0.656,24.94 95.976,45.46 142.27,46.55 42.13,0.99 149.67,-15.11 150.39,-43.79 l 1.14,-36.028 z" />
    <path
       style="fill:url(#linearGradient2615)"
       inkscape:connector-curvature="0"
       id="path675"
       d="m 295.07,86.608 c -1.65,0.773 -3.92,-0.143 -3.98,-0.806 0.48,-1.701 0.98,-6.458 3.01,-9.403 1.68,-7.818 2.49,-16.879 -2.85,1.859 2.48,-5.462 2.27,-11.525 1.83,-13.767 -0.44,-2.89 -2.3,-6.811 -3.45,-9.405 -1.16,3.74 -4.24,6.318 -4.06,15.113 0.01,2.4 0.08,3.714 1.9,8.214 -5.53,-2.454 -10.28,3.946 -7.78,13.215 4.62,-10.692 11.73,-9.36 7.62,-0.689 -0.36,0.778 -2.22,3.651 -4.55,7.555 7.24,-4.478 12.44,-11.268 12.31,-11.886 z m -24.09,18.442 c -5.14,0.26 -4.8,-3.67 -4.24,-6.363 0.76,-3.493 4.96,-10.732 10.57,-4.869 4.42,-13.964 -3.9,-15.396 -9.52,-5.646 2.69,-4.674 2.34,-7.335 0.51,-12.242 -1.83,-4.908 -2.66,-4.441 -4.33,-7.871 -1.71,4.462 -3.67,6.161 -4.67,11.454 -0.82,5.271 -0.3,6.726 2.52,11.553 -7.57,-3.925 -16.41,5.415 -11.85,13.964 5.12,-7.814 12.31,-8.357 11.74,-2.13 -0.4,2.43 -0.73,4.64 -4.49,8.32 4.46,-1.43 10.76,-4 13.76,-6.17 z m -32.55,12.29 c -3.92,-1.67 -4.3,-3.48 -3.85,-6.02 0.62,-3.3 5.33,-8.52 12.84,-5.06 4.26,-10.639 -5.48,-13.798 -13.9,-4.66 2.29,-4.261 3.04,-8.97 1.73,-12.853 -1.38,-3.708 -3.72,-6.056 -5.89,-9.193 -2.14,3.626 -5.98,7.865 -6.28,11.75 -0.28,3.885 1.31,8.014 4.08,12.406 -12.29,-6.598 -19.89,3.73 -13.49,11.17 3.71,-5.91 11.6,-7.76 13.85,-2.36 1.31,3.38 -1.09,4.88 -4.7,8.48 l 15.61,-3.66 z m -54.44,9.52 c 3.56,-3.29 4.75,-7.1 2.94,-9.86 -3.72,-5.29 -10.77,-3.75 -15.38,1.08 -7.5,-8.71 5.19,-18.41 15.58,-10.67 -1.82,-3 -4.32,-6.54 -3.77,-11.472 0.55,-4.935 3.99,-7.837 6.72,-11.385 2.83,3.531 4.53,3.425 6.34,8.082 1.81,4.657 -1.53,10.875 -2.78,13.845 9,-8.348 21.6,-0.78 15.96,9.29 -4,-5.38 -12.77,-4.99 -14.79,0.52 -1.42,4.2 0.67,6.97 4.89,9.08 l -15.71,1.49 z m -27.97,2.65 c -5.08,-4.44 -5.95,-7.66 -4.29,-10.74 2.69,-4.38 10.67,-5.71 15.79,-0.33 6.68,-9.36 -5.85,-17.97 -15.5,-9.34 1.54,-3.15 5.09,-8.01 4.1,-12.878 -0.99,-4.865 -5.49,-6.345 -7.19,-10.193 -2.5,3.769 -6,5.361 -7.39,10.161 -1.39,4.8 1.42,9.81 2.93,12.66 -11.39,-8.34 -22.87,0.29 -15.38,9.72 5.06,-4.88 12.25,-4.98 15.1,0.15 2.25,3.77 0.95,7.15 -3.95,10.7 l 15.78,0.09 z m -44.13,-1.83 c -3.52,-3.33 -4.67,-7.16 -2.82,-9.89 3.78,-5.25 10.81,-3.63 15.36,1.25 7.6,-8.63 -4.98,-18.47 -15.46,-10.85 1.85,-2.98 4.4,-6.49 3.9,-11.428 -0.49,-4.941 -3.9,-7.882 -6.59,-11.461 -2.87,3.499 -4.56,3.373 -6.426,8.009 -1.866,4.636 1.406,10.89 2.616,13.87 -8.903,-8.444 -21.588,-1.02 -16.062,9.11 4.058,-5.33 12.824,-4.84 14.782,0.69 1.38,4.22 -0.75,6.96 -4.994,9.02 l 15.694,1.68 z m -53.837,-9.4 c 3.937,-1.63 4.331,-3.44 3.913,-5.98 -0.584,-3.31 -5.235,-8.58 -12.783,-5.21 -4.132,-10.686 5.644,-13.733 13.958,-4.5 -2.244,-4.286 -2.943,-9.004 -1.582,-12.872 1.416,-3.692 3.78,-6.013 5.99,-9.125 2.097,3.65 5.895,7.933 6.143,11.821 0.24,3.887 -1.402,7.996 -4.22,12.356 12.369,-6.455 19.848,3.96 13.364,11.33 -3.643,-5.95 -11.514,-7.89 -13.826,-2.52 -1.346,3.37 1.038,4.89 4.608,8.53 L 58.053,118.28 z M 26.378,106.11 c 5.134,0.31 4.835,-3.62 4.309,-6.317 -0.724,-3.502 -4.842,-10.788 -10.51,-4.989 -4.261,-14.013 4.07,-15.351 9.581,-5.537 -2.637,-4.705 -2.259,-7.361 -0.371,-12.248 1.889,-4.886 2.711,-4.41 4.419,-7.821 1.66,4.481 3.601,6.204 4.541,11.507 0.756,5.28 0.224,6.729 -2.651,11.524 7.608,-3.839 16.343,5.601 11.685,14.101 -5.03,-7.875 -12.211,-8.5 -11.714,-2.27 0.375,2.44 0.678,4.65 4.4,8.37 -4.445,-1.47 -10.719,-4.12 -13.689,-6.32 z M 3.608,87.205 c 1.8797,2.019 3.2917,1.318 3.3615,-0.08 C 6.971,85.357 6.8243,76.736 3.3304,78.174 1.7437,70.337 1.5585,55.385 6.9014,79.088 5.2177,73.358 4.9958,69.502 5.4601,67.265 5.9363,64.38 7.833,60.971 9.0126,58.39 c 1.1229,3.753 4.1699,5.876 3.8969,14.668 -0.041,2.4 -0.127,3.713 -1.999,8.192 5.851,-10.483 10.24,4.063 7.627,13.303 -4.49,-10.744 -11.613,-9.493 -7.608,-0.776 0.352,0.782 2.182,3.676 4.462,7.603 C 8.2084,96.823 3.4715,87.822 3.6075,87.205 z" />
    <path
       style="fill:url(#linearGradient2617)"
       inkscape:connector-curvature="0"
       id="path690"
       d="m 3.0437,119.06 c -1.3647,0 -1.6507,4.29 0.1906,5.97 21.409,29.38 102.81,39.79 145.97,39.26 64.52,-0.79 138.17,-19.08 146.3,-40.98 0.96,-3.06 0.96,-5.61 0,-5.43 -9.35,21.67 -67.58,38.17 -146.52,41.35 -53.986,2.19 -124.44,-12.5 -145.94,-40.17 z" />
    <path
       style="fill:url(#linearGradient2619)"
       inkscape:connector-curvature="0"
       id="path692"
       d="m 296.26,85.396 c 1.37,-0.011 1.69,2.746 -0.14,5.969 C 277.99,121.93 193.63,133.47 150.46,133.27 85.934,132.98 33.93,123.74 4.21,93.425 2.3306,91.463 1.0457,88.022 4.1696,87.998 c 30.924,29.572 81.775,41.602 146.47,40.222 54.02,-1.16 127.39,-13.46 145.62,-42.824 z" />
    <g
       id="g731"
       transform="matrix(0.52121,-0.62445,0.62445,0.52121,-391.94,135.54)">
      <path
         style="fill:url(#linearGradient3211)"
         inkscape:connector-curvature="0"
         id="path722"
         d="m 469.02,568.19 c -2.06,0 -3.72,1.66 -3.72,3.72 v 9.03 c 0,2.06 1.66,3.72 3.72,3.72 h 10.09 c 2.06,0 3.72,-1.66 3.72,-3.72 v -9.03 c 0,-2.06 -1.66,-3.72 -3.72,-3.72 h -10.09 z m -0.89,-1.45 c -2.43,0 -4.38,1.95 -4.38,4.37 v 10.63 c 0,2.42 1.95,4.37 4.38,4.37 H 480 c 2.43,0 4.38,-1.95 4.38,-4.37 v -10.63 c 0,-2.42 -1.95,-4.37 -4.38,-4.37 h -11.87 z" />
      <g
         id="g728"
         transform="translate(-40,0.62497)">
        <rect
           style="fill:#007d00"
           id="rect727"
           ry="3.7186999"
           height="16.469"
           width="17.531"
           y="567.56"
           x="505.29999" />
        <rect
           style="fill:url(#linearGradient3213)"
           id="rect719"
           ry="2.8719001"
           height="12.719"
           width="11.281"
           y="569.44"
           x="510.29999" />
      </g>
    </g>
    <g
       id="g736"
       transform="matrix(0.56834,-0.58188,0.58188,0.56834,-520.91,89.715)">
      <path
         style="fill:url(#linearGradient2621)"
         inkscape:connector-curvature="0"
         id="path737"
         d="m 469.02,568.19 c -2.06,0 -3.72,1.66 -3.72,3.72 v 9.03 c 0,2.06 1.66,3.72 3.72,3.72 h 10.09 c 2.06,0 3.72,-1.66 3.72,-3.72 v -9.03 c 0,-2.06 -1.66,-3.72 -3.72,-3.72 h -10.09 z m -0.89,-1.45 c -2.43,0 -4.38,1.95 -4.38,4.37 v 10.63 c 0,2.42 1.95,4.37 4.38,4.37 H 480 c 2.43,0 4.38,-1.95 4.38,-4.37 v -10.63 c 0,-2.42 -1.95,-4.37 -4.38,-4.37 h -11.87 z" />
      <g
         id="g738"
         transform="translate(-40,0.62497)">
        <rect
           style="fill:#007d00"
           id="rect739"
           ry="3.7186999"
           height="16.469"
           width="17.531"
           y="567.56"
           x="505.29999" />
        <rect
           style="fill:url(#linearGradient2623)"
           id="rect740"
           ry="2.8719001"
           height="12.719"
           width="11.281"
           y="569.44"
           x="510.29999" />
      </g>
    </g>
    <g
       id="g741"
       transform="matrix(0.81339,0,0,0.81339,-116.08,-298.77)">
      <path
         style="fill:url(#linearGradient3215)"
         inkscape:connector-curvature="0"
         id="path698"
         d="m 318.8,538.38 c -5.15,0 -9.3,4.14 -9.3,9.29 0,5.15 4.15,9.3 9.3,9.3 h 11.15 c 5.15,0 9.3,-4.15 9.3,-9.3 0,-5.15 -4.15,-9.29 -9.3,-9.29 H 318.8 z m -0.99,-1.64 c -6.06,0 -10.93,4.87 -10.93,10.93 0,6.06 4.87,10.94 10.93,10.94 h 13.13 c 6.06,0 10.94,-4.88 10.94,-10.94 0,-6.06 -4.88,-10.93 -10.94,-10.93 h -13.13 z" />
      <g
         id="g705"
         transform="translate(-24.375,-50.625)">
        <rect
           style="fill:#e50000"
           id="rect695"
           ry="9.2968998"
           height="18.594"
           width="29.75"
           y="589"
           x="334.5" />
        <rect
           style="fill:url(#linearGradient3217)"
           id="rect700"
           ry="3.6719"
           height="7.3438001"
           width="20.375"
           y="590.88"
           x="340.75" />
      </g>
    </g>
    <g
       id="g756"
       transform="matrix(0.61684,0.29449,-0.33651,0.76503,15.808,-389.41)">
      <path
         style="fill:url(#linearGradient3219)"
         inkscape:connector-curvature="0"
         id="path757"
         d="m 318.8,538.38 c -5.15,0 -9.3,4.14 -9.3,9.29 0,5.15 4.15,9.3 9.3,9.3 h 11.15 c 5.15,0 9.3,-4.15 9.3,-9.3 0,-5.15 -4.15,-9.29 -9.3,-9.29 H 318.8 z m -0.99,-1.64 c -6.06,0 -10.93,4.87 -10.93,10.93 0,6.06 4.87,10.94 10.93,10.94 h 13.13 c 6.06,0 10.94,-4.88 10.94,-10.94 0,-6.06 -4.88,-10.93 -10.94,-10.93 h -13.13 z" />
      <g
         id="g758"
         transform="translate(-24.375,-50.625)">
        <rect
           style="fill:#e50000"
           id="rect759"
           ry="9.2968998"
           height="18.594"
           width="29.75"
           y="589"
           x="334.5" />
        <rect
           style="fill:url(#linearGradient2631)"
           id="rect760"
           ry="3.6719"
           height="7.3438001"
           width="20.375"
           y="590.88"
           x="340.75" />
      </g>
    </g>
    <g
       id="g772"
       transform="matrix(0.81339,0,0,0.81339,-107.97,-383.81)">
      <path
         style="fill:url(#linearGradient2629)"
         inkscape:connector-curvature="0"
         id="path762"
         transform="matrix(-0.75824,0.36231,0.41403,0.94041,478.93,-5.6408)"
         d="m 318.8,538.38 c -5.15,0 -9.3,4.14 -9.3,9.29 0,5.15 4.15,9.3 9.3,9.3 h 11.15 c 5.15,0 9.3,-4.15 9.3,-9.3 0,-5.15 -4.15,-9.29 -9.3,-9.29 H 318.8 z m -0.99,-1.64 c -6.06,0 -10.93,4.87 -10.93,10.93 0,6.06 4.87,10.94 10.93,10.94 h 13.13 c 6.06,0 10.94,-4.88 10.94,-10.94 0,-6.06 -4.88,-10.93 -10.94,-10.93 h -13.13 z" />
      <rect
         style="fill:#e50000"
         id="rect764"
         ry="9.2968998"
         transform="matrix(-0.75824,0.36231,0.41403,0.94041,476.45,-62.08)"
         width="29.75"
         y="589"
         x="334.5"
         height="18.594" />
      <rect
         style="fill:url(#linearGradient2639)"
         id="rect765"
         ry="3.3429999"
         transform="matrix(-0.89248,0.45109,0.38426,0.92323,0,0)"
         width="14.627"
         y="763.41998"
         x="-192.89"
         height="6.6859002" />
    </g>
    <g
       id="g793"
       transform="matrix(0.81339,0,0,0.81339,-113.57,-298.41)">
      <path
         style="fill:url(#linearGradient3221)"
         inkscape:connector-curvature="0"
         id="path777"
         d="m 504.07,506.73 c 0.32,-1.15 -1.95,1.48 -2.58,1.19 l -2.37,-1.23 c -2.07,-0.74 -2.24,-3.44 -1.73,-5.18 l 4.82,-12.72 c 0.85,-1.85 3.26,-0.26 3,-0.96 -0.79,-2.23 -2.71,-3.57 -3.91,-1.45 l -6.15,15.04 c -0.75,2.12 -0.97,5.43 1.26,6.4 l 4.73,2 c 1.23,0.53 2.38,-0.77 2.93,-3.09 z" />
      <path
         style="fill:#007d00"
         inkscape:connector-curvature="0"
         id="path789"
         d="m 497.21,501.76 c -0.72,1.93 0.18,4.3 2.1,5.02 l 1.74,0.98 c 0.45,0.33 1.33,0.3 2.37,-0.54 2.19,-1.87 4.18,-5.59 4.95,-8.3 0.42,-1.41 -0.89,-10.34 -3.77,-11.29 -0.38,-0.13 -1.95,-0.22 -2.44,1 l -4.95,13.13 z" />
      <path
         style="fill:url(#linearGradient3223)"
         inkscape:connector-curvature="0"
         id="path791"
         transform="matrix(0.94997,0.31234,-0.31234,0.94997,176.36,-134.23)"
         d="m 512.74,497.98 c -0.31,1.14 -4.03,5.77 -6.36,6.94 -1.68,0.84 -2.14,-1.87 -2,-7.28 0.03,-1.24 -0.4,-8.52 2.04,-8.56 2.46,-0.03 6.75,7.53 6.32,8.9 z" />
    </g>
    <g
       id="g797"
       transform="matrix(-0.81339,0,0,0.81339,413.57,-297.9)">
      <path
         style="fill:url(#linearGradient2641)"
         inkscape:connector-curvature="0"
         id="path798"
         d="m 504.07,506.73 c 0.32,-1.15 -1.95,1.48 -2.58,1.19 l -2.37,-1.23 c -2.07,-0.74 -2.24,-3.44 -1.73,-5.18 l 4.82,-12.72 c 0.85,-1.85 3.26,-0.26 3,-0.96 -0.79,-2.23 -2.71,-3.57 -3.91,-1.45 l -6.15,15.04 c -0.75,2.12 -0.97,5.43 1.26,6.4 l 4.73,2 c 1.23,0.53 2.38,-0.77 2.93,-3.09 z" />
      <path
         style="fill:#007d00"
         inkscape:connector-curvature="0"
         id="path799"
         d="m 497.21,501.76 c -0.72,1.93 0.18,4.3 2.1,5.02 l 1.74,0.98 c 0.45,0.33 1.33,0.3 2.37,-0.54 2.19,-1.87 4.18,-5.59 4.95,-8.3 0.42,-1.41 -0.89,-10.34 -3.77,-11.29 -0.38,-0.13 -1.95,-0.22 -2.44,1 l -4.95,13.13 z" />
      <path
         style="fill:url(#linearGradient2643)"
         inkscape:connector-curvature="0"
         id="path800"
         transform="matrix(0.94997,0.31234,-0.31234,0.94997,176.36,-134.23)"
         d="m 512.74,497.98 c -0.31,1.14 -4.03,5.77 -6.36,6.94 -1.68,0.84 -2.14,-1.87 -2,-7.28 0.03,-1.24 -0.4,-8.52 2.04,-8.56 2.46,-0.03 6.75,7.53 6.32,8.9 z" />
    </g>
  </g>
</svg>
